:FULLY-SPECIFIED
:FORCE-ALL-JOINTS-BE-3DOF
:DEGREES
1223
root -0.754343 14.6273 -17.0428 12.3009 20.3185 3.34422
lfemur 14.4038 -1.18692 -9.82793
ltibia 28.9549 -0 0
lfoot 1.01437 28.2533 0.0401098
ltoes -29.8569 0 0
rfemur -61.2265 -16.2413 21.8708
rtibia 79.0625 -0 0
rfoot -18.8446 -22.6334 -0.0056744
rtoes 5.13963 -0 0
lowerback 13.6688 0.333108 -3.8349
upperback -3.82777 -0.296522 -0.295458
thorax -11.8733 0.134841 1.9222
lowerneck -1.01715 -8.60561 -9.86437
upperneck 0.0712488 -11.496 10.1945
head 1.3804 -5.70877 4.38118
lclavicle -4.03781e-014 -7.95139e-016 0
lhumerus -61.6933 -29.3531 114.809
lradius 90.7337 -0 0
lwrist 24.9667 0 0
lhand -23.2257 22.6525 0.255247
lfingers 7.12502 -0 0
lthumb 3.23689 55.8831 -0.0659038
rclavicle -4.03781e-014 -7.95139e-016 0
rhumerus 65.8505 2.50853 -26.793
rradius 93.3501 -0 0
rwrist -10.8976 0 0
rhand -30.0262 -33.5934 -0.116915
rfingers 7.12502 -0 0
rthumb -3.34284 -63.5311 -0.112331
1224
root -0.760623 14.6541 -16.8643 12.0872 19.6851 2.87549
lfemur 12.3687 -1.10815 -9.95693
ltibia 32.887 -0 0
lfoot 1.13464 27.1499 0.0570797
ltoes -30.1451 0 0
rfemur -60.3152 -15.472 22.3008
rtibia 78.7681 -0 0
rfoot -19.219 -22.9939 -0.00490451
rtoes 4.37899 -0 0
lowerback 13.591 0.312379 -3.38008
upperback -3.82148 -0.227059 -0.185551
thorax -11.8145 0.139559 1.76995
lowerneck -1.03248 -8.41161 -9.67943
upperneck 0.135681 -11.2366 9.97625
head 1.35944 -5.57912 4.31001
lclavicle -4.03781e-014 -7.95139e-016 0
lhumerus -60.6 -30.5507 115.582
lradius 88.7957 -0 0
lwrist 20.7646 0 0
lhand -23.8336 21.271 0.338623
lfingers 7.12502 -0 0
lthumb 2.6583 56.0581 -0.108259
rclavicle -4.03781e-014 -7.95139e-016 0
rhumerus 66.4322 3.00656 -26.6273
rradius 93.8104 -0 0
rwrist -12.0543 0 0
rhand -29.5465 -34.1955 -0.148003
rfingers 7.12502 -0 0
rthumb -2.8796 -64.1357 -0.142281
1225
root -0.766904 14.6808 -16.6859 11.8382 19.0325 2.38393
lfemur 10.1533 -1.00822 -10.0916
ltibia 37.1755 -0 0
lfoot 1.20018 25.9658 0.0745096
ltoes -30.4637 0 0
rfemur -59.32 -14.6597 22.7423
rtibia 78.4306 -0 0
rfoot -19.6057 -23.3278 -0.00351199
rtoes 3.52049 -0 0
lowerback 13.5203 0.297217 -2.90326
upperback -3.80641 -0.146136 -0.0684922
thorax -11.7506 0.148331 1.61024
lowerneck -1.04475 -8.21439 -9.48799
upperneck 0.20802 -10.9735 9.74873
head 1.34013 -5.44779 4.23539
lclavicle -4.03781e-014 -7.95139e-016 0
lhumerus -59.4617 -31.8237 116.373
lradius 86.7366 -0 0
lwrist 16.3349 0 0
lhand -24.4617 19.811 0.417814
lfingers 7.12502 -0 0
lthumb 2.06263 56.3008 -0.150213
rclavicle -4.03781e-014 -7.95139e-016 0
rhumerus 67.0636 3.50129 -26.4447
rradius 94.3042 -0 0
rwrist -13.2353 0 0
rhand -29.0508 -34.842 -0.176531
rfingers 7.12502 -0 0
rthumb -2.40087 -64.7842 -0.169784
1226
root -0.773184 14.7075 -16.5074 11.5604 18.3622 1.87522
lfemur 7.78131 -0.888007 -10.2328
ltibia 41.7508 -0 0
lfoot 1.21711 24.7167 0.0910296
ltoes -30.8049 0 0
rfemur -58.248 -13.8144 23.195
rtibia 78.0527 -0 0
rfoot -20.0039 -23.6366 -0.00160941
rtoes 2.57763 -0 0
lowerback 13.4561 0.287462 -2.4099
upperback -3.78375 -0.0550504 0.0546238
thorax -11.6826 0.160968 1.44523
lowerneck -1.0551 -8.01455 -9.29145
upperneck 0.287851 -10.7072 9.51392
head 1.32275 -5.31509 4.15801
lclavicle -4.03781e-014 -7.95139e-016 0
lhumerus -58.27 -33.1612 117.165
lradius 84.5877 -0 0
lwrist 11.744 0 0
lhand -25.1056 18.3037 0.488094
lfingers 7.12502 -0 0
lthumb 1.45369 56.5696 -0.187703
rclavicle -4.03781e-014 -7.95139e-016 0
rhumerus 67.7241 4.00161 -26.2537
rradius 94.8234 -0 0
rwrist -14.4407 0 0
rhand -28.5426 -35.5228 -0.20118
rfingers 7.12502 -0 0
rthumb -1.91001 -65.4666 -0.193566
1227
root -0.779464 14.7343 -16.3289 11.2601 17.6758 1.35483
lfemur 5.27641 -0.74829 -10.3812
ltibia 46.5429 -0 0
lfoot 1.19158 23.4186 0.105341
ltoes -31.1615 0 0
rfemur -57.1062 -12.9463 23.6581
rtibia 77.6369 -0 0
rfoot -20.4126 -23.9223 0.000692042
rtoes 1.56386 -0 0
lowerback 13.3979 0.282948 -1.90547
upperback -3.75469 0.0449019 0.1827
thorax -11.6115 0.177267 1.27712
lowerneck -1.06466 -7.8127 -9.09119
upperneck 0.374783 -10.4384 9.27383
head 1.30761 -5.18134 4.07855
lclavicle -4.03781e-014 -7.95139e-016 0
lhumerus -57.015 -34.5516 117.938
lradius 82.3803 -0 0
lwrist 7.05858 0 0
lhand -25.7608 16.7804 0.545616
lfingers 7.12502 -0 0
lthumb 0.835415 56.8229 -0.217554
rclavicle -4.03781e-014 -7.95139e-016 0
rhumerus 68.3931 4.51674 -26.0631
rradius 95.36 -0 0
rwrist -15.6705 0 0
rhand -28.0252 -36.2277 -0.220866
rfingers 7.12502 -0 0
rthumb -1.4104 -66.1726 -0.212578
